<svg width="373" height="78" viewBox="0 0 373 78" fill="none" xmlns="http://www.w3.org/2000/svg">
<mask id="mask0_12326_41612" style="mask-type:alpha" maskUnits="userSpaceOnUse" x="0" y="3" width="72" height="72">
<rect y="3" width="72" height="72" fill="#333333"/>
</mask>
<g mask="url(#mask0_12326_41612)">
</g>
<g clip-path="url(#clip0_12326_41612)">
<path d="M50.3913 31.807C50.3913 39.7599 43.9505 46.207 35.9982 46.207C35.9982 42.2349 32.7703 39.007 28.7982 39.007H21.5913C14.3982 39.007 7.19824 34.9572 7.19824 24.607C7.19824 14.0322 14.3982 10.207 21.5913 10.207H35.9982C43.1982 10.207 50.3913 14.6682 50.3913 24.607V31.807Z" fill="#020617"/>
<path d="M53.9631 32.1901C53.7517 41.932 45.7856 49.807 35.9982 49.807H32.3982V46.207C32.3982 44.221 30.7808 42.607 28.7982 42.607H21.9571C21.7319 43.7216 21.5913 44.9133 21.5913 46.207V53.407C21.5913 61.3599 28.0454 67.807 35.9982 67.807C35.9982 63.8274 39.2262 60.607 43.1982 60.607H50.3913C57.5982 60.607 64.7983 56.5572 64.7983 46.207C64.7983 37.4006 59.7853 33.319 53.9631 32.1901Z" fill="#020617"/>
</g>
<path d="M122.182 39.2273C122.182 44.2424 121.242 48.5379 119.364 52.1136C117.5 55.6742 114.955 58.4015 111.727 60.2955C108.515 62.1894 104.871 63.1364 100.795 63.1364C96.7197 63.1364 93.0682 62.1894 89.8409 60.2955C86.6288 58.3864 84.0833 55.6515 82.2045 52.0909C80.3409 48.5152 79.4091 44.2273 79.4091 39.2273C79.4091 34.2121 80.3409 29.9242 82.2045 26.3636C84.0833 22.7879 86.6288 20.053 89.8409 18.1591C93.0682 16.2651 96.7197 15.3182 100.795 15.3182C104.871 15.3182 108.515 16.2651 111.727 18.1591C114.955 20.053 117.5 22.7879 119.364 26.3636C121.242 29.9242 122.182 34.2121 122.182 39.2273ZM113.705 39.2273C113.705 35.697 113.152 32.7197 112.045 30.2955C110.955 27.8561 109.439 26.0152 107.5 24.7727C105.561 23.5152 103.326 22.8864 100.795 22.8864C98.2652 22.8864 96.0303 23.5152 94.0909 24.7727C92.1515 26.0152 90.6288 27.8561 89.5227 30.2955C88.4318 32.7197 87.8864 35.697 87.8864 39.2273C87.8864 42.7576 88.4318 45.7424 89.5227 48.1818C90.6288 50.6061 92.1515 52.447 94.0909 53.7045C96.0303 54.947 98.2652 55.5682 100.795 55.5682C103.326 55.5682 105.561 54.947 107.5 53.7045C109.439 52.447 110.955 50.6061 112.045 48.1818C113.152 45.7424 113.705 42.7576 113.705 39.2273ZM138.017 42.0455V62.5H129.79V27.5909H137.653V33.5227H138.062C138.866 31.5682 140.146 30.0152 141.903 28.8636C143.676 27.7121 145.866 27.1364 148.472 27.1364C150.881 27.1364 152.979 27.6515 154.767 28.6818C156.57 29.7121 157.964 31.2045 158.949 33.1591C159.949 35.1136 160.441 37.4848 160.426 40.2727V62.5H152.199V41.5455C152.199 39.2121 151.593 37.3864 150.381 36.0682C149.184 34.75 147.525 34.0909 145.403 34.0909C143.964 34.0909 142.684 34.4091 141.562 35.0455C140.456 35.6667 139.585 36.5682 138.949 37.75C138.328 38.9318 138.017 40.3636 138.017 42.0455ZM184.244 63.1818C180.744 63.1818 177.722 62.4545 175.176 61C172.646 59.5303 170.699 57.4545 169.335 54.7727C167.972 52.0758 167.29 48.9015 167.29 45.25C167.29 41.6591 167.972 38.5076 169.335 35.7955C170.714 33.0682 172.638 30.947 175.108 29.4318C177.578 27.9015 180.479 27.1364 183.812 27.1364C185.964 27.1364 187.994 27.4848 189.903 28.1818C191.828 28.8636 193.525 29.9242 194.994 31.3636C196.479 32.803 197.646 34.6364 198.494 36.8636C199.343 39.0758 199.767 41.7121 199.767 44.7727V47.2955H171.153V41.75H191.881C191.866 40.1742 191.525 38.7727 190.858 37.5455C190.191 36.303 189.259 35.3258 188.062 34.6136C186.881 33.9015 185.502 33.5455 183.926 33.5455C182.244 33.5455 180.767 33.9545 179.494 34.7727C178.222 35.5758 177.229 36.6364 176.517 37.9545C175.82 39.2576 175.464 40.6894 175.449 42.25V47.0909C175.449 49.1212 175.82 50.8636 176.562 52.3182C177.305 53.7576 178.343 54.8636 179.676 55.6364C181.009 56.3939 182.57 56.7727 184.358 56.7727C185.555 56.7727 186.638 56.6061 187.608 56.2727C188.578 55.9242 189.419 55.4167 190.131 54.75C190.843 54.0833 191.381 53.2576 191.744 52.2727L199.426 53.1364C198.941 55.1667 198.017 56.9394 196.653 58.4545C195.305 59.9545 193.578 61.1212 191.472 61.9545C189.366 62.7727 186.956 63.1818 184.244 63.1818ZM215.523 15.9545V62.5H207.091V15.9545H215.523ZM232.517 42.0455V62.5H224.29V27.5909H232.153V33.5227H232.562C233.366 31.5682 234.646 30.0152 236.403 28.8636C238.176 27.7121 240.366 27.1364 242.972 27.1364C245.381 27.1364 247.479 27.6515 249.267 28.6818C251.07 29.7121 252.464 31.2045 253.449 33.1591C254.449 35.1136 254.941 37.4848 254.926 40.2727V62.5H246.699V41.5455C246.699 39.2121 246.093 37.3864 244.881 36.0682C243.684 34.75 242.025 34.0909 239.903 34.0909C238.464 34.0909 237.184 34.4091 236.062 35.0455C234.956 35.6667 234.085 36.5682 233.449 37.75C232.828 38.9318 232.517 40.3636 232.517 42.0455ZM263.653 62.5V15.9545H271.881V33.3636H272.222C272.646 32.5152 273.244 31.6136 274.017 30.6591C274.79 29.6894 275.835 28.8636 277.153 28.1818C278.472 27.4848 280.153 27.1364 282.199 27.1364C284.896 27.1364 287.328 27.8258 289.494 29.2045C291.676 30.5682 293.403 32.5909 294.676 35.2727C295.964 37.9394 296.608 41.2121 296.608 45.0909C296.608 48.9242 295.979 52.1818 294.722 54.8636C293.464 57.5455 291.752 59.5909 289.585 61C287.419 62.4091 284.964 63.1136 282.222 63.1136C280.222 63.1136 278.563 62.7803 277.244 62.1136C275.926 61.447 274.866 60.6439 274.062 59.7045C273.275 58.75 272.661 57.8485 272.222 57H271.744V62.5H263.653ZM271.722 45.0455C271.722 47.303 272.04 49.2803 272.676 50.9773C273.328 52.6742 274.259 54 275.472 54.9545C276.699 55.8939 278.184 56.3636 279.926 56.3636C281.744 56.3636 283.267 55.8788 284.494 54.9091C285.722 53.9242 286.646 52.5833 287.267 50.8864C287.903 49.1742 288.222 47.2273 288.222 45.0455C288.222 42.8788 287.911 40.9545 287.29 39.2727C286.669 37.5909 285.744 36.2727 284.517 35.3182C283.29 34.3636 281.759 33.8864 279.926 33.8864C278.169 33.8864 276.676 34.3485 275.449 35.2727C274.222 36.197 273.29 37.4924 272.653 39.1591C272.032 40.8258 271.722 42.7879 271.722 45.0455ZM318.83 63.1818C315.42 63.1818 312.466 62.4318 309.966 60.9318C307.466 59.4318 305.527 57.3333 304.148 54.6364C302.784 51.9394 302.102 48.7879 302.102 45.1818C302.102 41.5758 302.784 38.4167 304.148 35.7045C305.527 32.9924 307.466 30.8864 309.966 29.3864C312.466 27.8864 315.42 27.1364 318.83 27.1364C322.239 27.1364 325.193 27.8864 327.693 29.3864C330.193 30.8864 332.125 32.9924 333.489 35.7045C334.867 38.4167 335.557 41.5758 335.557 45.1818C335.557 48.7879 334.867 51.9394 333.489 54.6364C332.125 57.3333 330.193 59.4318 327.693 60.9318C325.193 62.4318 322.239 63.1818 318.83 63.1818ZM318.875 56.5909C320.723 56.5909 322.269 56.0833 323.511 55.0682C324.754 54.0379 325.678 52.6591 326.284 50.9318C326.905 49.2045 327.216 47.2803 327.216 45.1591C327.216 43.0227 326.905 41.0909 326.284 39.3636C325.678 37.6212 324.754 36.2348 323.511 35.2045C322.269 34.1742 320.723 33.6591 318.875 33.6591C316.981 33.6591 315.405 34.1742 314.148 35.2045C312.905 36.2348 311.973 37.6212 311.352 39.3636C310.746 41.0909 310.443 43.0227 310.443 45.1591C310.443 47.2803 310.746 49.2045 311.352 50.9318C311.973 52.6591 312.905 54.0379 314.148 55.0682C315.405 56.0833 316.981 56.5909 318.875 56.5909ZM347.955 27.5909L355 40.4773L362.159 27.5909H370.864L360.341 45.0455L371.045 62.5H362.386L355 49.9318L347.682 62.5H338.955L349.591 45.0455L339.227 27.5909H347.955Z" fill="#020617"/>
<defs>
<clipPath id="clip0_12326_41612">
<rect width="57.6" height="57.6" fill="white" transform="translate(7.19824 10.207)"/>
</clipPath>
</defs>
</svg>
